<svg width="186" height="50" viewBox="0 0 186 50" fill="none" xmlns="http://www.w3.org/2000/svg">
<path d="M44.1607 26.8624H12.5493L7.23693 16.1659C7.23693 16.1659 11.6028 17.5095 17.8347 16.0946C29.6907 13.4027 27.5441 2 27.5441 2C27.5441 2 26.3505 12.6103 13.7722 9.10704C4.51798 6.52966 1.53636 10.7243 1.53636 10.7243L10.9257 29.6292C7.20462 29.6766 1.60618 34.0134 0.325234 38.5631C-1.09254 43.5985 2.31176 48.0239 6.91195 47.9999C10.4041 47.9818 14.0602 46.033 15.6811 41.668H25.6892C25.8753 41.668 26.0537 41.5941 26.1853 41.4625C26.3169 41.3309 26.3908 41.1525 26.3908 40.9664C26.3908 40.7803 26.3169 40.6019 26.1853 40.4703C26.0537 40.3387 25.8753 40.2648 25.6892 40.2648H16.1084C16.265 39.6248 16.3728 38.9738 16.4307 38.3174H30.9015C31.0875 38.3174 31.266 38.2435 31.3976 38.1119C31.5291 37.9803 31.6031 37.8019 31.6031 37.6158C31.6031 37.4297 31.5291 37.2513 31.3976 37.1197C31.266 36.9881 31.0875 36.9142 30.9015 36.9142H16.475C16.458 36.2595 16.3819 35.6078 16.2476 34.9668H35.4835C35.6696 34.9668 35.8481 34.8929 35.9796 34.7613C36.1112 34.6297 36.1851 34.4513 36.1851 34.2652C36.1851 34.0791 36.1112 33.9007 35.9796 33.7691C35.8481 33.6375 35.6696 33.5636 35.4835 33.5636H15.8341C15.7373 33.3118 15.632 33.0672 15.5148 32.8336L14.9102 31.6162H39.3494C39.5355 31.6162 39.714 31.5423 39.8455 31.4107C39.9771 31.2791 40.051 31.1007 40.051 30.9146C40.051 30.7285 39.9771 30.5501 39.8455 30.4185C39.714 30.2869 39.5355 30.213 39.3494 30.213H14.2136L13.2463 28.2656H44.1607C44.3468 28.2656 44.5253 28.1917 44.6568 28.0601C44.7884 27.9285 44.8623 27.7501 44.8623 27.564C44.8623 27.3779 44.7884 27.1994 44.6568 27.0679C44.5253 26.9363 44.3468 26.8624 44.1607 26.8624Z" fill="url(#paint0_linear_1_224)"/>
<path d="M13.7738 12.3281C17.1251 14.3066 19.8236 14.8124 21.961 14.5475C29.1408 10.4899 27.5438 2 27.5438 2C27.5438 2 26.3503 12.6103 13.772 9.10704C4.518 6.52966 1.53638 10.7243 1.53638 10.7243C1.53638 10.7243 5.50198 7.44407 13.7738 12.3281Z" fill="url(#paint1_linear_1_224)"/>
<path d="M52.0183 36.5V35.82L53.6503 35.48C54.3303 35.344 54.8176 35.208 55.1123 35.072C55.4296 34.9133 55.6336 34.6867 55.7243 34.392C55.815 34.0973 55.8603 33.678 55.8603 33.134V16.202C55.8603 15.8847 55.781 15.658 55.6223 15.522C55.4863 15.386 55.2256 15.3293 54.8403 15.352L52.2223 15.454V14.604L59.8723 13.312V33.134C59.8723 33.678 59.9176 34.0973 60.0083 34.392C60.099 34.6867 60.2916 34.9133 60.5863 35.072C60.9036 35.208 61.4023 35.344 62.0823 35.48L63.7143 35.82V36.5H52.0183ZM88.7168 36.976C87.6741 36.976 86.7335 36.7833 85.8948 36.398C85.0561 35.99 84.2515 35.4007 83.4808 34.63C82.7328 33.8593 81.9735 32.9413 81.2028 31.876C80.5908 30.992 79.9788 30.1307 79.3668 29.292C78.7775 28.4533 78.0975 27.762 77.3268 27.218C76.5788 26.674 75.6495 26.402 74.5388 26.402H73.5868V33.44C73.5868 34.1427 73.7001 34.6073 73.9268 34.834C74.1761 35.0607 74.7201 35.2647 75.5588 35.446L77.4288 35.82V36.5H65.6648V35.82L67.5348 35.446C68.3735 35.2647 68.9061 35.0607 69.1328 34.834C69.3821 34.6073 69.5068 34.1427 69.5068 33.44V16.678C69.5068 15.9527 69.3821 15.4767 69.1328 15.25C68.9061 15.0233 68.3735 14.8307 67.5348 14.672L65.6648 14.298V13.618H75.1848C78.4488 13.618 80.9875 14.1733 82.8008 15.284C84.6141 16.3947 85.5208 17.936 85.5208 19.908C85.5208 20.9507 85.2148 21.8913 84.6028 22.73C83.9908 23.546 83.1748 24.2147 82.1548 24.736C81.1348 25.2347 80.0241 25.552 78.8228 25.688V25.756C79.8655 25.8013 80.7721 26.0847 81.5428 26.606C82.3361 27.1047 83.0388 27.762 83.6508 28.578C84.2855 29.3713 84.9088 30.21 85.5208 31.094C86.1101 31.9327 86.6995 32.726 87.2888 33.474C87.8781 34.1993 88.4788 34.7887 89.0908 35.242C89.7255 35.6953 90.3715 35.922 91.0288 35.922V36.67C90.2581 36.874 89.4875 36.976 88.7168 36.976ZM73.5868 25.348H75.1848C76.3635 25.348 77.4061 25.1553 78.3128 24.77C79.2421 24.362 79.9675 23.7727 80.4888 23.002C81.0101 22.2313 81.2708 21.2793 81.2708 20.146C81.2708 18.3327 80.6928 16.9613 79.5368 16.032C78.4035 15.08 76.8055 14.604 74.7428 14.604H73.5868V25.348ZM102.118 36.5V35.956L103.342 35.548C103.682 35.4573 103.92 35.31 104.056 35.106C104.192 34.8793 104.26 34.6073 104.26 34.29V26.98C104.26 25.96 103.988 25.178 103.444 24.634C102.9 24.0673 102.107 23.784 101.064 23.784C100.044 23.784 99.2281 24.1127 98.6161 24.77C98.0268 25.4273 97.7321 26.232 97.7321 27.184L97.0521 23.716H97.6981C98.3101 23.4213 98.9788 23.0813 99.7041 22.696C100.429 22.3107 101.121 21.9367 101.778 21.574C101.891 21.5287 102.005 21.4947 102.118 21.472C102.254 21.4267 102.379 21.404 102.492 21.404C104.101 21.404 105.348 21.812 106.232 22.628C107.116 23.4213 107.558 24.5887 107.558 26.13V34.46C107.558 34.7773 107.649 35.0267 107.83 35.208C108.011 35.3667 108.227 35.48 108.476 35.548L109.7 35.956V36.5H102.118ZM92.2921 36.5V35.956L93.5161 35.548C93.8334 35.4573 94.0601 35.31 94.1961 35.106C94.3548 34.8793 94.4341 34.6073 94.4341 34.29V15.862C94.4341 15.386 94.3661 15.0687 94.2301 14.91C94.0941 14.7287 93.8788 14.604 93.5841 14.536L92.2921 14.196V13.72C93.4028 13.5387 94.3888 13.3573 95.2501 13.176C96.1114 12.9947 96.9841 12.7113 97.8681 12.326L98.2081 12.564C98.0268 12.9267 97.9021 13.3687 97.8341 13.89C97.7661 14.4113 97.7321 15.012 97.7321 15.692V34.46C97.7321 34.7773 97.8114 35.0267 97.9701 35.208C98.1514 35.3667 98.3668 35.48 98.6161 35.548L99.8401 35.956V36.5H92.2921ZM112.783 45.34C112.125 45.34 111.593 45.136 111.185 44.728C110.799 44.32 110.607 43.8553 110.607 43.334C110.607 42.7447 110.788 42.246 111.151 41.838C111.513 41.4527 111.967 41.26 112.511 41.26C112.828 41.26 113.089 41.3167 113.293 41.43C113.519 41.5433 113.712 41.668 113.871 41.804C114.007 41.94 114.131 42.0307 114.245 42.076C114.358 42.144 114.471 42.178 114.585 42.178C114.947 42.178 115.253 41.8833 115.503 41.294L117.781 35.922L112.375 23.24C112.261 23.0133 112.125 22.8547 111.967 22.764C111.831 22.6507 111.615 22.56 111.321 22.492L110.267 22.254V21.676H118.189V22.254L116.999 22.526C116.659 22.594 116.398 22.73 116.217 22.934C116.058 23.1153 116.035 23.376 116.149 23.716L119.991 33.066H119.107L123.119 23.444C123.232 23.2173 123.255 23.036 123.187 22.9C123.119 22.764 122.892 22.6507 122.507 22.56L120.977 22.254V21.676H126.825V22.254L125.567 22.594C125.272 22.6847 125.057 22.7867 124.921 22.9C124.785 22.9907 124.66 23.1493 124.547 23.376L116.693 41.838C116.353 42.6313 115.979 43.2773 115.571 43.776C115.185 44.2973 114.755 44.6827 114.279 44.932C113.825 45.204 113.327 45.34 112.783 45.34ZM133.151 36.772C131.043 36.772 129.989 35.446 129.989 32.794V22.73H127.745V21.914C129.218 21.6647 130.318 21.1433 131.043 20.35C131.768 19.5567 132.233 18.4233 132.437 16.95H133.287V21.676H137.469L137.129 22.73H133.287V32.522C133.287 33.3833 133.423 33.9727 133.695 34.29C133.967 34.6073 134.341 34.766 134.817 34.766C135.157 34.766 135.542 34.6867 135.973 34.528C136.404 34.3693 136.846 34.1653 137.299 33.916L137.741 34.664C136.88 35.344 136.041 35.8653 135.225 36.228C134.432 36.5907 133.74 36.772 133.151 36.772ZM148.901 36.5V35.956L150.125 35.548C150.465 35.4573 150.703 35.31 150.839 35.106C150.975 34.8793 151.043 34.6073 151.043 34.29V26.98C151.043 25.96 150.771 25.178 150.227 24.634C149.683 24.0673 148.89 23.784 147.847 23.784C146.827 23.784 146.011 24.1127 145.399 24.77C144.81 25.4273 144.515 26.232 144.515 27.184L143.835 23.716H144.481C145.093 23.4213 145.762 23.0813 146.487 22.696C147.213 22.3107 147.904 21.9367 148.561 21.574C148.675 21.5287 148.788 21.4947 148.901 21.472C149.037 21.4267 149.162 21.404 149.275 21.404C150.885 21.404 152.131 21.812 153.015 22.628C153.899 23.4213 154.341 24.5887 154.341 26.13V34.46C154.341 34.7773 154.432 35.0267 154.613 35.208C154.795 35.3667 155.01 35.48 155.259 35.548L156.483 35.956V36.5H148.901ZM139.075 36.5V35.956L140.299 35.548C140.617 35.4573 140.843 35.31 140.979 35.106C141.138 34.8793 141.217 34.6073 141.217 34.29V15.862C141.217 15.386 141.149 15.0687 141.013 14.91C140.877 14.7287 140.662 14.604 140.367 14.536L139.075 14.196V13.72C140.186 13.5387 141.172 13.3573 142.033 13.176C142.895 12.9947 143.767 12.7113 144.651 12.326L144.991 12.564C144.81 12.9267 144.685 13.3687 144.617 13.89C144.549 14.4113 144.515 15.012 144.515 15.692V34.46C144.515 34.7773 144.595 35.0267 144.753 35.208C144.935 35.3667 145.15 35.48 145.399 35.548L146.623 35.956V36.5H139.075ZM176.566 36.5V35.956L177.79 35.548C178.107 35.4573 178.334 35.31 178.47 35.106C178.606 34.8793 178.674 34.6073 178.674 34.29V27.014C178.674 25.9713 178.425 25.178 177.926 24.634C177.427 24.0673 176.702 23.784 175.75 23.784C174.821 23.784 174.073 24.1127 173.506 24.77C172.962 25.4047 172.69 26.198 172.69 27.15L172.01 23.716H172.656C173.245 23.4213 173.914 23.0813 174.662 22.696C175.41 22.3107 176.067 21.9367 176.634 21.574C176.838 21.4607 177.031 21.404 177.212 21.404C178.708 21.404 179.875 21.812 180.714 22.628C181.553 23.4213 181.972 24.5887 181.972 26.13V34.46C181.972 34.7773 182.063 35.0267 182.244 35.208C182.425 35.3667 182.641 35.48 182.89 35.548L184.114 35.956V36.5H176.566ZM157.968 36.5V35.956L159.192 35.548C159.509 35.4573 159.736 35.31 159.872 35.106C160.031 34.8793 160.11 34.6073 160.11 34.29V24.77C160.11 24.294 160.031 23.9767 159.872 23.818C159.736 23.6367 159.521 23.512 159.226 23.444L157.968 23.104V22.594C158.716 22.4807 159.373 22.3673 159.94 22.254C160.529 22.1407 161.085 22.0047 161.606 21.846C162.15 21.6647 162.717 21.4607 163.306 21.234L163.612 21.472C163.476 21.744 163.363 22.1067 163.272 22.56C163.204 23.0133 163.17 23.4893 163.17 23.988V24.328L163.408 24.974V34.46C163.408 34.7773 163.487 35.0267 163.646 35.208C163.827 35.3667 164.043 35.48 164.292 35.548L165.516 35.956V36.5H157.968ZM167.25 36.5V35.956L168.474 35.548C168.814 35.4573 169.052 35.31 169.188 35.106C169.324 34.8793 169.392 34.6073 169.392 34.29V27.014C169.392 25.9713 169.131 25.178 168.61 24.634C168.111 24.0673 167.397 23.784 166.468 23.784C165.539 23.784 164.791 24.1127 164.224 24.77C163.68 25.4047 163.408 26.198 163.408 27.15L162.728 23.716H163.34C163.929 23.4213 164.598 23.0813 165.346 22.696C166.094 22.3107 166.763 21.9367 167.352 21.574C167.556 21.4607 167.737 21.404 167.896 21.404C169.415 21.404 170.593 21.812 171.432 22.628C172.271 23.4213 172.69 24.5887 172.69 26.13V34.46C172.69 34.7773 172.781 35.0267 172.962 35.208C173.143 35.3667 173.359 35.48 173.608 35.548L174.832 35.956V36.5H167.25Z" fill="#121010"/>
<defs>
<linearGradient id="paint0_linear_1_224" x1="8.51" y1="17.87" x2="33.0995" y2="36.4708" gradientUnits="userSpaceOnUse">
<stop offset="0.140625" stop-color="#35B6C8"/>
<stop offset="0.45359" stop-color="#318DCF"/>
<stop offset="0.916667" stop-color="#2C61D7"/>
</linearGradient>
<linearGradient id="paint1_linear_1_224" x1="0.14996" y1="8.07926" x2="26.081" y2="8.86858" gradientUnits="userSpaceOnUse">
<stop offset="0.0912799" stop-color="#2C61D7"/>
<stop offset="0.56134" stop-color="#318ECF"/>
<stop offset="0.956174" stop-color="#36B6C8"/>
</linearGradient>
</defs>
</svg>
