<svg width="24" height="24" viewBox="0 0 24 24" fill="none" xmlns="http://www.w3.org/2000/svg">
<g opacity="0.7" clip-path="url(#clip0_1_277)">
<path d="M20.7298 11.7912V4.06751C20.7298 3.79751 20.5109 3.57863 20.2409 3.57863H17.0328V2.74895C17.0328 2.52395 16.8503 2.34155 16.6253 2.34155H16.1561C15.9311 2.34155 15.7486 2.52395 15.7486 2.74895V3.57863H5.62295V2.74895C5.62295 2.52395 5.44055 2.34155 5.21555 2.34155H4.74647C4.52147 2.34155 4.33895 2.52395 4.33895 2.74895V3.57863H1.23131C0.961312 3.57863 0.742432 3.79751 0.742432 4.06751V20.2165C0.742432 20.4866 0.961312 20.7054 1.23131 20.7054H12.2089C12.2308 20.7054 12.2514 20.7018 12.2725 20.6988C13.4093 22.0865 15.1351 22.9739 17.0646 22.9739C20.4799 22.9739 23.2584 20.1953 23.2584 16.7801C23.2584 14.7355 22.2619 12.9198 20.7298 11.7912ZM1.72019 4.55639H4.33895V5.42303C4.33895 5.64803 4.52135 5.83043 4.74647 5.83043H5.21555C5.44055 5.83043 5.62295 5.64803 5.62295 5.42303V4.55639H15.7483V5.42303C15.7483 5.64803 15.9308 5.83043 16.1558 5.83043H16.625C16.85 5.83043 17.0326 5.64803 17.0326 5.42303V4.55639H19.7518V7.50395H1.72019V4.55639ZM1.72019 19.7275V8.48171H19.752V11.2004C18.9388 10.8071 18.027 10.5864 17.0646 10.5864C13.6495 10.5864 10.8712 13.3649 10.8712 16.7801C10.8712 17.8464 11.142 18.8506 11.6185 19.7276H1.72019V19.7275ZM17.0646 21.9962C14.1886 21.9962 11.8489 19.6561 11.8489 16.7801C11.8489 13.904 14.1886 11.5643 17.0646 11.5643C19.9409 11.5643 22.2806 13.9042 22.2806 16.7801C22.2806 19.656 19.9409 21.9962 17.0646 21.9962Z" fill="#0D0F14"/>
<path d="M21.0565 17.484L17.5217 16.3615V12.4937C17.5217 12.2237 17.3026 12.0048 17.0328 12.0048C16.7628 12.0048 16.5439 12.2237 16.5439 12.4937V16.7193C16.5439 16.9324 16.6817 17.1208 16.8847 17.1852L20.7609 18.4161C20.8098 18.4318 20.86 18.4392 20.9089 18.4392C21.1159 18.4392 21.3088 18.3061 21.3747 18.0981C21.4564 17.8407 21.3138 17.5656 21.0565 17.484Z" fill="#0D0F14"/>
</g>
<defs>
<clipPath id="clip0_1_277">
<rect width="24" height="24" fill="white" transform="translate(0.000488281)"/>
</clipPath>
</defs>
</svg>
