<svg width="24" height="24" viewBox="0 0 24 24" fill="none" xmlns="http://www.w3.org/2000/svg">
<g opacity="0.7">
<path d="M1.83163 20.276V22.8008C1.83163 22.96 1.89491 23.1125 2.00741 23.2251C2.11991 23.3376 2.27249 23.4008 2.43163 23.4008H10.186C10.4003 23.4008 10.5984 23.2864 10.7056 23.1008C10.8128 22.9152 10.8128 22.6864 10.7056 22.5008C10.5984 22.3152 10.4003 22.2008 10.186 22.2008H3.03163V20.2808C3.03132 19.7517 3.18592 19.2341 3.47639 18.7918C3.76679 18.3496 4.18037 18.002 4.66607 17.792L10.1981 15.392H10.198C10.3046 15.3461 10.3956 15.27 10.46 15.1734C10.5243 15.0767 10.5592 14.9634 10.5604 14.8472V12.9056C10.5603 12.6939 10.4921 12.4878 10.366 12.3176C9.87378 11.6042 9.5669 10.7793 9.47322 9.91762C9.45346 9.74731 9.36174 9.59356 9.22118 9.4952C8.6815 9.11942 8.35908 8.50402 8.3572 7.84644C8.35588 7.72668 8.40463 7.6119 8.49158 7.52964C8.57939 7.44613 8.6969 7.40113 8.81798 7.4048C8.98001 7.41128 9.13774 7.35198 9.25532 7.24026C9.37282 7.12862 9.44016 6.97416 9.44196 6.81198L9.46118 4.9808C9.46024 4.57019 9.5368 4.16306 9.6868 3.78081C10.1404 2.64081 11.2972 1.4408 12.7588 1.4408H13.1404V2.1008C13.1402 2.24963 13.1954 2.39322 13.2952 2.50371C13.395 2.61409 13.5322 2.68355 13.6804 2.69839C14.1365 2.76589 14.5736 2.92769 14.9637 3.17355C15.3538 3.41949 15.6883 3.74395 15.946 4.12645C16.1743 4.44473 16.2968 4.82669 16.2964 5.21841V6.79763C16.2964 6.95677 16.3596 7.10935 16.4721 7.22193C16.5846 7.33443 16.7372 7.39764 16.8964 7.39764C17.0144 7.39857 17.1274 7.446 17.2108 7.52967C17.2939 7.61201 17.3398 7.72467 17.338 7.84163C17.3356 8.48577 17.0262 9.09015 16.5051 9.46881C16.3704 9.56842 16.2833 9.71983 16.2651 9.88647C16.1736 10.7759 15.8536 11.6266 15.3364 12.3561C15.2078 12.5276 15.1804 12.7546 15.2646 12.9517C15.3488 13.1489 15.5318 13.2861 15.7446 13.3117C15.9574 13.3374 16.1678 13.2476 16.2964 13.0761C16.8954 12.2449 17.2826 11.2802 17.4243 10.2657C18.1304 9.65575 18.5374 8.76989 18.5404 7.83687C18.5418 7.40179 18.3689 6.98437 18.0604 6.67765C17.8997 6.5171 17.7077 6.39125 17.4964 6.30805V5.21609C17.4989 4.57031 17.2954 3.94063 16.9156 3.41843C16.2946 2.53133 15.384 1.88803 14.3404 1.59929V0.840849C14.3404 0.681709 14.2772 0.529129 14.1647 0.416549C14.0521 0.304049 13.8995 0.240845 13.7404 0.240845H12.7588C10.7428 0.240845 9.17563 1.83686 8.57083 3.31764H8.57076C8.36412 3.8403 8.25826 4.39724 8.2588 4.95928L8.24442 6.29366H8.24434C8.02566 6.37273 7.82614 6.49703 7.6588 6.65843C7.3367 6.96655 7.15528 7.39351 7.15716 7.83929C7.15865 8.79281 7.58334 9.69655 8.31638 10.3065C8.45263 11.265 8.81006 12.1787 9.36036 12.9753V14.4513L4.19076 16.6857C3.4899 16.9885 2.89302 17.4898 2.4738 18.1278C2.05458 18.7658 1.8313 19.5126 1.83154 20.2762L1.83163 20.276Z" fill="#0D0F14"/>
<path d="M22.1725 14.1936C22.1727 14.0061 22.085 13.8292 21.9356 13.7157C21.7863 13.6022 21.5925 13.565 21.4117 13.6153L16.2421 15.0553C16.1158 15.0905 16.0044 15.166 15.9251 15.2705C15.8458 15.3749 15.8029 15.5025 15.8029 15.6337V19.9201C15.5026 19.779 15.1748 19.7062 14.8429 19.7065C14.3113 19.7391 13.8137 19.9789 13.4569 20.3743C13.1 20.7697 12.9123 21.2892 12.9342 21.8214C12.9561 22.3536 13.1857 22.8559 13.5738 23.2208C13.9619 23.5855 14.4775 23.7837 15.01 23.7726C15.5425 23.7615 16.0495 23.5422 16.422 23.1615C16.7946 22.781 17.0032 22.2695 17.0029 21.7369V21.6865V21.6601V16.0801L20.9725 14.9808V18.48C20.6722 18.339 20.3444 18.2661 20.0125 18.2664C19.4809 18.2991 18.9833 18.5389 18.6264 18.9343C18.2696 19.3297 18.0819 19.8492 18.1038 20.3814C18.1257 20.9135 18.3553 21.4159 18.7434 21.7807C19.1315 22.1455 19.6471 22.3436 20.1796 22.3325C20.7121 22.3215 21.2191 22.1021 21.5916 21.7215C21.9642 21.341 22.1728 20.8295 22.1725 20.2968V20.2464V20.22L22.1725 14.1936ZM14.8429 22.56C14.6292 22.5292 14.4356 22.4173 14.3024 22.2475C14.169 22.0777 14.1061 21.8631 14.1268 21.6482C14.1475 21.4332 14.2501 21.2346 14.4134 21.0933C14.5767 20.9522 14.7881 20.8792 15.0037 20.8896C15.2194 20.9001 15.4227 20.9932 15.5715 21.1496C15.7203 21.306 15.8032 21.5137 15.8029 21.7296C15.7846 21.9666 15.6734 22.1867 15.4936 22.3421C15.3139 22.4976 15.0801 22.5759 14.8429 22.56H14.8429ZM20.0101 21.12H20.0102C19.7965 21.0892 19.6028 20.9773 19.4696 20.8075C19.3362 20.6377 19.2733 20.4231 19.294 20.2082C19.3147 19.9932 19.4174 19.7946 19.5807 19.6533C19.7439 19.5122 19.9553 19.4392 20.171 19.4496C20.3866 19.4601 20.5899 19.5532 20.7387 19.7096C20.8875 19.866 20.9704 20.0737 20.9702 20.2896C20.9518 20.5261 20.8409 20.7458 20.6617 20.9013C20.4825 21.0567 20.2493 21.1353 20.0125 21.12H20.0101Z" fill="#0D0F14"/>
</g>
</svg>
